<svg xmlns="http://www.w3.org/2000/svg" width="18" height="30" viewBox="0 0 18 30"><g><g><path fill="#fff" d="M6.215 29.94a1.458 1.458 0 0 1-1.459-1.455V17.649H1.948A1.458 1.458 0 0 1 .49 16.193V11.55c0-.802.654-1.455 1.458-1.455h2.808V7.77c0-2.306.726-4.267 2.098-5.673C8.232.686 10.158-.06 12.424-.06l3.671.006a1.459 1.459 0 0 1 1.456 1.455v4.311c0 .803-.654 1.456-1.458 1.456h-2.472c-.753 0-.945.151-.986.198-.068.076-.149.293-.149.892v1.837h3.421c.258 0 .507.063.722.182.462.258.75.746.75 1.273l-.002 4.644c0 .802-.654 1.454-1.458 1.454h-3.433v10.837c0 .802-.654 1.455-1.458 1.455zm.304-1.759h4.205v-11.32c0-.536.437-.971.974-.971h3.917l.002-4.037h-3.92a.973.973 0 0 1-.973-.971V8.258c0-.688.07-1.469.59-2.056.628-.71 1.617-.792 2.307-.792l2.168-.001V1.704L12.423 1.7c-3.642 0-5.904 2.326-5.904 6.07v3.113a.974.974 0 0 1-.974.971H2.252v4.037h3.293c.537 0 .974.435.974.971zm9.573-26.476"/></g></g></svg>