<svg xmlns="http://www.w3.org/2000/svg" width="30" height="30" viewBox="0 0 30 30"><g><g><g/><g><path fill="#fff" d="M21.88 0C26.356 0 30 3.643 30 8.12v13.76c0 4.477-3.643 8.12-8.12 8.12H8.12C3.644 30 0 26.357 0 21.88V8.12C0 3.644 3.643 0 8.12 0zm6.361 8.12A6.37 6.37 0 0 0 21.88 1.76H8.122A6.37 6.37 0 0 0 1.759 8.12v13.758a6.37 6.37 0 0 0 6.362 6.362h13.758a6.369 6.369 0 0 0 6.362-6.362z"/></g><g><path fill="#fff" d="M23.206 15.003c0 4.523-3.68 8.203-8.203 8.203S6.8 19.526 6.8 15.003 10.48 6.8 15.003 6.8s8.203 3.68 8.203 8.203zm-1.759 0a6.451 6.451 0 0 0-6.444-6.444 6.452 6.452 0 0 0-6.444 6.444 6.451 6.451 0 0 0 6.444 6.444 6.451 6.451 0 0 0 6.444-6.444z"/></g><g><path fill="#fff" d="M25.828 6.304a2.427 2.427 0 0 1-2.424 2.424 2.427 2.427 0 0 1-2.424-2.424 2.427 2.427 0 0 1 2.424-2.424 2.427 2.427 0 0 1 2.424 2.424zm-1.759 0a.666.666 0 1 0-1.332.001.666.666 0 0 0 1.332-.001z"/></g></g></g></svg>