<svg xmlns="http://www.w3.org/2000/svg" width="30" height="24" viewBox="0 0 30 24"><g><g><path fill="#fff" d="M29.84 2.212l-12.45 20.57a1.564 1.564 0 0 1-1.316.733c-.31 0-.616-.093-.873-.27l-2.94-2.007-2.988 1.986a1.29 1.29 0 1 1-2.004-1.077v-4.609c0-.39.187-.763.5-.997l6.65-4.975-8.533 4.508a1.236 1.236 0 0 1-1.28-.073l-3.933-2.69a1.534 1.534 0 0 1-.661-1.463 1.543 1.543 0 0 1 1.007-1.267L28.538.617c.433-.16.92-.027 1.214.332.295.36.33.867.088 1.263zm-2.485.707L2.014 12.094 5.34 14.37l14.108-7.454a1.231 1.231 0 0 1 1.629.436c.35.554.217 1.268-.307 1.66L9.028 17.799v3.474l2.551-1.695a1.237 1.237 0 0 1 1.386.008l3.044 2.08z"/></g></g></svg>