<svg xmlns="http://www.w3.org/2000/svg" width="30" height="18" viewBox="0 0 30 18"><g><g><path fill="#fff" d="M26.702 11.966c2.067 2.01 3.144 3.723 3.2 5.094l.038.917h-5.315c-.548 0-1.543-.14-2.086-.417-.993-.506-1.62-1.281-2.225-2.03-.42-.52-.816-1.01-1.316-1.383-.174-.13-.33-.195-.42-.175-.098.022-.279.172-.463.522a4.629 4.629 0 0 0-.332.737c-.146.45-.214 1.042-.214 1.866v.88h-.879c-4.373 0-7.62-1.62-10.231-4.716C4.094 10.459 2.327 6.558.402 1.562L-.06.365h7.137c.238.632.154.347.621 1.684.41 1.167.969 2.766 1.607 4.117.92 1.949 1.45 2.181 1.512 2.203.019-.015.381-.291.533-1.775a13.27 13.27 0 0 0-.044-2.884c-.149-1.059-.331-1.272-.88-1.457l-1.442-.486 1.14-1.01c.346-.304 1.048-.65 3.44-.626 2.761.03 3.752.413 4.023.456l.224 1.104c.138.678.08 1.625.014 2.721-.057.936-.116 1.903-.05 2.701.064.763.219 1.059.307 1.168l.042.013c.273-.116 1.045-.773 2.223-2.865 1.625-2.886 2.01-4.58 2.036-4.65L29.76.776l.143.707c.266 1.324-1.024 3.187-3.022 5.879-.623.84-1.213 1.635-1.507 2.152-.233.41-.304.683.006 1.1.265.335 1.05 1.1 1.306 1.337zm-2.043 4.25h3.207c-.32-.654-.99-1.626-2.38-2.979-.193-.178-1.119-1.064-1.493-1.542l-.011-.014c-.672-.892-.78-1.903-.135-3.038.347-.611.939-1.409 1.624-2.332.786-1.06 1.988-2.655 2.496-3.774-.358 0-3.407-.004-4.302-.002-.386 1.013-1.103 2.564-1.873 3.91-2.402 4.2-3.67 3.555-3.89 3.623l-.567-.174c-.006-.004-.214-.1-.41-.28-1.116-1.02-.983-3.198-.855-5.309.053-.874.108-1.777.024-2.237a21.323 21.323 0 0 0-3.482-.162c.256.49.361 1.036.435 1.557.09.633.165 1.78.084 2.934-.103 1.462-.41 2.469-.94 3.08-.37.427-.848.653-1.38.653-1.068 0-1.997-.939-3.016-3.044-.71-1.47-1.314-3.195-1.755-4.454l-.178-.506H2.51C4.192 6.38 5.781 9.73 7.801 12.123c2.172 2.574 4.744 3.88 8.04 4.068.041-.588.13-1.07.27-1.506.135-.415.302-.733.448-1.013.52-.986 1.175-1.316 1.632-1.42.122-.027.263-.046.42-.046.395 0 .891.12 1.438.528.676.505 1.161 1.106 1.63 1.686.536.662.997 1.233 1.658 1.57.21.107.93.231 1.308.225h.014z"/></g></g></svg>