<svg xmlns="http://www.w3.org/2000/svg" width="30" height="24" viewBox="0 0 30 24"><g><g><g><path fill="#fff" d="M19.62 10.647a1.217 1.217 0 0 1-.008 2.14l-6.628 3.565a1.215 1.215 0 0 1-1.794-1.072V8.089c0-.434.223-.826.597-1.047.373-.222.824-.23 1.205-.02zM17.9 11.711l-4.953-2.71v5.374z"/></g><g><path fill="#fff" d="M29.78 5.993c.008.1.22 2.492.22 4.894v2.245c0 2.401-.212 4.793-.22 4.894l-.004.03c-.03.236-.317 2.338-1.312 3.42-1.193 1.313-2.54 1.455-3.186 1.524a5.912 5.912 0 0 0-.169.019l-.052.005c-3.966.289-9.955.328-10.015.328h-.019c-.304-.004-7.484-.112-9.774-.33l-.07-.009c-.07-.013-.176-.024-.298-.038-.772-.089-2.207-.253-3.341-1.495C.5 20.387.248 18.279.222 18.041l-.001-.015C.21 17.926 0 15.533 0 13.132v-2.245c0-2.402.212-4.794.22-4.894l.004-.03c.03-.237.317-2.339 1.312-3.42C2.746 1.213 4.099 1.056 4.75.981l.14-.017.053-.006C8.945.67 14.935.63 14.995.63h.01c.06 0 6.05.04 10.016.328l.052.006.15.018c.657.074 2.026.23 3.232 1.515 1.045 1.093 1.298 3.24 1.323 3.482zm-1.538 4.894c0-2.259-.2-4.58-.213-4.73-.075-.685-.37-1.95-.846-2.446l-.007-.008c-.766-.817-1.6-.912-2.153-.975l-.155-.018c-3.857-.279-9.66-.32-9.868-.322-.208.002-6.013.043-9.905.322l-.143.017c-.537.062-1.35.156-2.12 1.003-.464.505-.773 1.754-.862 2.436a61.483 61.483 0 0 0-.212 4.72v2.246c0 2.254.2 4.57.213 4.729.075.671.37 1.915.846 2.41l.016.018c.692.76 1.591.864 2.248.939.13.015.253.029.366.047 2.22.207 9.295.315 9.593.32.266-.002 6.029-.045 9.865-.322l.187-.021c.56-.06 1.328-.141 2.075-.963.485-.527.788-1.857.862-2.435.019-.21.213-2.5.213-4.722z"/></g></g></g></svg>