<svg xmlns="http://www.w3.org/2000/svg" width="30" height="30" viewBox="0 0 30 30"><g><g><path fill="#fafafa" d="M15 30c-4.007 0-7.774-1.56-10.607-4.393A14.902 14.902 0 0 1 0 15c0-4.007 1.56-7.774 4.393-10.607A14.902 14.902 0 0 1 15 0c4.007 0 7.774 1.56 10.607 4.393A14.902 14.902 0 0 1 30 15c0 4.007-1.56 7.774-4.393 10.607A14.902 14.902 0 0 1 15 30zm0-27.656C8.021 2.344 2.344 8.02 2.344 15c0 6.979 5.677 12.656 12.656 12.656 6.979 0 12.656-5.677 12.656-12.656C27.656 8.021 21.98 2.344 15 2.344zm0 18.766l-8.103-8.102 1.658-1.658L15 17.796l6.445-6.445 1.658 1.657z"/></g></g></svg>